<svg id="Capa_1" enable-background="new 0 0 512 512" height="512" viewBox="0 0 512 512" width="512" xmlns="http://www.w3.org/2000/svg"><g><g><path d="m43.135 40.733v360.233c0 18.086 14.662 32.748 32.748 32.748h304.328c4.343 0 8.508 1.725 11.578 4.796l63.099 63.099c5.158 5.158 13.976 1.505 13.976-5.789v-455.087c0-18.086-14.662-32.748-32.748-32.748h-360.232c-18.087-.001-32.749 14.661-32.749 32.748z" fill="#c8aaed"/></g><g><path d="m413.115 261.793-36.021-126.071c-3-10.5-11.013-18.861-21.404-22.221-15.008-4.853-30.5-8.625-46.39-11.219-9.949-1.626-18.995 6.14-18.995 16.221v12.288h-67.054v-12.288c0-10.081-9.046-17.847-18.995-16.221-15.89 2.594-31.382 6.366-46.39 11.219-10.39 3.36-18.404 11.721-21.404 22.221l-36.02 126.071c-4.194 14.681 2.347 30.18 15.652 37.672 11.588 6.525 27.464 14.232 47.077 20.837 7.318 2.464 15.425-.467 19.398-7.087l13.322-22.203 60.109 10.404 61.937-9.953 13.05 21.751c3.973 6.62 12.08 9.55 19.398 7.087 19.613-6.605 35.489-14.311 47.077-20.837 13.305-7.491 19.847-22.99 15.653-37.671z" fill="#fff"/></g><g><path d="m158.212 314.9c2.653-11.514-2.933-23.51-13.66-28.464-5.639-2.604-11.119-5.393-16.404-8.372-3.454-1.943-5.137-5.861-4.09-9.522l36.022-126.077c.752-2.632 2.755-4.752 5.36-5.595l57.811-6.078v-12.288c0-10.081-9.044-17.846-18.993-16.222-15.89 2.594-31.382 6.366-46.391 11.219-10.39 3.36-18.404 11.721-21.404 22.221l-36.02 126.071c-4.194 14.681 2.347 30.18 15.652 37.672 10.404 5.859 24.437 12.632 41.356 18.743z" fill="#ebcdfa"/></g><g><path d="m460.661 512c-4.2 0-8.317-1.643-11.419-4.746l-63.098-63.098c-1.584-1.585-3.692-2.457-5.932-2.457h-304.328c-22.46 0-40.733-18.272-40.733-40.733v-360.233c0-22.461 18.272-40.733 40.733-40.733h360.233c22.46 0 40.733 18.272 40.733 40.733v455.087c0 6.565-3.919 12.429-9.984 14.942-2.012.833-4.119 1.238-6.205 1.238zm-384.777-496.031c-13.655 0-24.764 11.109-24.764 24.764v360.233c0 13.654 11.109 24.764 24.764 24.764h304.328c6.506 0 12.623 2.533 17.224 7.134l63.099 63.099c.131.131.1.084.101.084.047 0 .19-.059.24-.114-.002-.005.005-.043.005-.113v-455.087c0-13.654-11.109-24.764-24.764-24.764z" fill="#9c89c2"/></g><g><path d="m198.69 261.582c-17.946 0-32.546-14.6-32.546-32.545s14.6-32.546 32.546-32.546 32.546 14.601 32.546 32.546-14.6 32.545-32.546 32.545zm0-49.123c-9.141 0-16.577 7.437-16.577 16.577s7.436 16.576 16.577 16.576 16.577-7.436 16.577-16.576-7.436-16.577-16.577-16.577z" fill="#283246"/></g><g><path d="m305.123 261.582c-17.946 0-32.546-14.6-32.546-32.545s14.6-32.546 32.546-32.546 32.546 14.601 32.546 32.546-14.601 32.545-32.546 32.545zm0-49.123c-9.141 0-16.577 7.437-16.577 16.577s7.436 16.576 16.577 16.576 16.577-7.436 16.577-16.576c-.001-9.14-7.437-16.577-16.577-16.577z" fill="#283246"/></g><path d="m420.792 259.599-36.02-126.071c-3.748-13.118-13.701-23.444-26.624-27.623-15.482-5.006-31.483-8.876-47.56-11.503-7.033-1.146-14.195.849-19.646 5.484-5.479 4.656-8.62 11.443-8.62 18.619v5.498c-8.738-.786-17.517-1.195-26.321-1.195-8.282 0-16.541.358-24.764 1.053v-5.356c0-7.176-3.142-13.963-8.62-18.619-5.45-4.634-12.61-6.629-19.647-5.484-16.076 2.627-32.077 6.497-47.559 11.503-12.923 4.179-22.876 14.505-26.625 27.624l-36.02 126.07c-5.201 18.204 2.781 37.459 19.412 46.823 15.047 8.472 31.347 15.687 48.447 21.447 2.545.857 5.16 1.267 7.75 1.267 8.425 0 16.565-4.35 21.043-11.814l13.321-22.202c2.269-3.782 1.043-8.686-2.738-10.955-3.783-2.268-8.686-1.044-10.955 2.739l-13.321 22.202c-2.024 3.372-6.231 4.9-10.003 3.629-16.154-5.44-31.533-12.245-45.708-20.226-10.165-5.724-15.055-17.452-11.892-28.522l36.02-126.07c2.284-7.991 8.333-14.278 16.184-16.816 14.72-4.76 29.934-8.44 45.219-10.938 2.442-.4 4.828.274 6.731 1.891 1.902 1.616 2.993 3.968 2.993 6.451v7.14c-17.549 2.456-34.88 6.5-51.834 12.111-4.186 1.385-6.457 5.903-5.071 10.089 1.385 4.186 5.9 6.456 10.089 5.071 28.348-9.381 57.804-14.139 87.55-14.139 29.736 0 59.191 4.759 87.55 14.145.833.276 1.678.406 2.51.406 3.349 0 6.469-2.124 7.578-5.478 1.385-4.186-.885-8.704-5.071-10.089-16.455-5.446-33.263-9.409-50.277-11.885v-7.372c0-2.483 1.091-4.835 2.993-6.451 1.903-1.618 4.294-2.29 6.73-1.891 15.286 2.498 30.5 6.177 45.22 10.938 7.85 2.538 13.9 8.825 16.183 16.816l36.02 126.071c3.163 11.068-1.727 22.797-11.892 28.521-14.176 7.982-29.555 14.787-45.709 20.226-3.771 1.272-7.979-.256-10.003-3.629l-13.05-21.751c-2.269-3.781-7.172-5.008-10.954-2.739-3.781 2.269-5.008 7.174-2.739 10.955l13.05 21.751c4.479 7.465 12.617 11.815 21.043 11.814 2.588 0 5.205-.41 7.75-1.267 17.1-5.759 33.4-12.975 48.447-21.447 16.629-9.364 24.611-28.619 19.41-46.822z" fill="#9c89c2"/><g><path d="m313.308 441.699h-237.424c-22.46 0-40.733-18.272-40.733-40.733v-188.302c0-4.41 3.575-7.985 7.985-7.985s7.985 3.575 7.985 7.985v188.302c0 13.654 11.109 24.764 24.764 24.764h237.424c4.41 0 7.984 3.575 7.984 7.984s-3.575 7.985-7.985 7.985z" fill="#283246"/></g><g><path d="m256 308.658c-29.306 0-57.977-6.379-85.219-18.96-4.003-1.849-5.75-6.593-3.901-10.597 1.848-4.005 6.592-5.751 10.597-3.901 25.127 11.604 51.546 17.489 78.523 17.489s53.397-5.884 78.523-17.489c4.004-1.851 8.748-.103 10.597 3.901s.102 8.748-3.901 10.597c-27.241 12.581-55.913 18.96-85.219 18.96z" fill="#283246"/></g></g></svg>